<?xml version="1.0" standalone="no"?>
<!DOCTYPE svg PUBLIC "-//W3C//DTD SVG 20010904//EN"
 "http://www.w3.org/TR/2001/REC-SVG-20010904/DTD/svg10.dtd">
<svg version="1.0" xmlns="http://www.w3.org/2000/svg"
 width="1536.000000pt" height="1536.000000pt" viewBox="0 0 1536.000000 1536.000000"
 preserveAspectRatio="xMidYMid meet">

<g transform="translate(0.000000,1536.000000) scale(0.100000,-0.100000)"
fill="#000000" stroke="none">
<path d="M4350 12488 c-263 -23 -486 -214 -559 -478 -21 -75 -21 -77 -21
-2630 0 -1676 4 -2593 10 -2665 65 -690 318 -1309 768 -1874 501 -629 1213
-1150 2117 -1551 300 -133 576 -233 1008 -366 l57 -18 188 58 c571 177 1155
435 1627 719 654 393 1194 893 1548 1432 62 94 118 180 125 192 238 433 378
852 437 1306 19 153 34 1813 16 1916 -54 324 -448 451 -682 220 -68 -68 -107
-146 -119 -243 -5 -41 -9 -433 -8 -888 0 -447 -3 -840 -6 -873 -38 -339 -115
-605 -262 -896 -242 -484 -683 -959 -1232 -1329 -377 -253 -814 -473 -1302
-655 -107 -40 -228 -83 -267 -96 l-73 -23 -67 24 c-993 343 -1734 776 -2253
1316 -433 451 -655 867 -788 1474 l-27 125 -3 2498 -2 2497 3117 1 c1715 0
3128 2 3141 5 l22 4 0 -548 c-1 -452 -3 -550 -15 -565 -7 -10 -710 -717 -1561
-1570 l-1547 -1550 -170 174 c-94 96 -247 253 -341 349 -1001 1024 -923 947
-1004 988 -73 35 -80 37 -177 36 -126 0 -188 -25 -273 -111 -129 -130 -156
-305 -73 -473 40 -80 47 -88 270 -315 102 -105 305 -314 451 -465 1000 -1036
1044 -1080 1105 -1109 79 -37 135 -51 208 -51 75 0 169 27 224 64 35 24 1407
1390 2799 2787 l802 804 45 95 c75 158 72 115 72 975 l0 770 -23 65 c-83 229
-215 360 -437 430 l-70 23 -3360 1 c-1848 0 -3394 -2 -3435 -6z"/>
</g>
</svg>
